<svg width="24" height="24" viewBox="0 0 24 24" fill="none" xmlns="http://www.w3.org/2000/svg">
<path d="M12 2C6.47581 2 2 6.47581 2 12C2 17.5242 6.47581 22 12 22C17.5242 22 22 17.5242 22 12C22 6.47581 17.5242 2 12 2ZM20.0645 12C20.0645 12.9073 19.9073 13.7823 19.629 14.5968H18.8105C18.6371 14.5968 18.4718 14.5282 18.3508 14.4032L17.0605 13.0887C16.879 12.9032 16.879 12.6008 17.0645 12.4153L17.5685 11.9113V11.5605C17.5685 11.4395 17.5202 11.3226 17.4355 11.2379L17.0565 10.8589C16.9718 10.7742 16.8548 10.7258 16.7339 10.7258H16.0887C15.8387 10.7258 15.6331 10.5202 15.6331 10.2702C15.6331 10.1492 15.6815 10.0323 15.7661 9.94758L16.1452 9.56855C16.2298 9.48387 16.3468 9.43548 16.4677 9.43548H17.7581C18.0081 9.43548 18.2137 9.22984 18.2137 8.97984V8.60081C18.2137 8.35081 18.0081 8.14516 17.7581 8.14516H16.2782C15.9234 8.14516 15.6331 8.43548 15.6331 8.79032V8.97177C15.6331 9.25 15.4556 9.49597 15.1935 9.58468L13.9194 10.0081C13.7863 10.0524 13.6976 10.1734 13.6976 10.3145V10.4032C13.6976 10.5806 13.5524 10.7258 13.375 10.7258H12.7298C12.5524 10.7258 12.4073 10.5806 12.4073 10.4032C12.4073 10.2258 12.2621 10.0806 12.0847 10.0806H11.9597C11.8387 10.0806 11.7258 10.1492 11.6694 10.2581L11.2903 11.0121C11.1815 11.2298 10.9597 11.3669 10.7137 11.3669H9.82258C9.46774 11.3669 9.17742 11.0766 9.17742 10.7218V9.70161C9.17742 9.53226 9.24597 9.36694 9.36694 9.24597L10.1774 8.43548C10.3629 8.25 10.4677 7.99597 10.4677 7.72984C10.4677 7.59274 10.5565 7.46774 10.6895 7.42339L12.3024 6.8871C12.371 6.8629 12.4315 6.82661 12.4798 6.77823L13.5605 5.69758C13.6452 5.6129 13.6935 5.49597 13.6935 5.375C13.6935 5.125 13.4879 4.91935 13.2379 4.91935H12.4032L11.7581 5.56452V5.8871C11.7581 6.06452 11.6129 6.20968 11.4355 6.20968H10.7903C10.6129 6.20968 10.4677 6.06452 10.4677 5.8871V5.08065C10.4677 4.97984 10.5161 4.88306 10.5968 4.82258L11.7621 3.94758C11.8387 3.94355 11.9153 3.93548 11.9919 3.93548C16.4476 3.93548 20.0645 7.55242 20.0645 12ZM7.24597 7.68952C7.24597 7.56855 7.29435 7.45161 7.37903 7.36694L8.40323 6.34274C8.4879 6.25806 8.60484 6.20968 8.72581 6.20968C8.97581 6.20968 9.18145 6.41532 9.18145 6.66532V7.31048C9.18145 7.43145 9.13306 7.54839 9.04839 7.63306L8.66935 8.0121C8.58468 8.09677 8.46774 8.14516 8.34677 8.14516H7.70161C7.45161 8.14516 7.24597 7.93952 7.24597 7.68952ZM12.4073 20.0444V19.7581C12.4073 19.4032 12.1169 19.1129 11.7621 19.1129H10.9476C10.5121 19.1129 9.87097 18.8992 9.52016 18.6371L8.625 17.9637C8.16129 17.6169 7.89113 17.0726 7.89113 16.496V15.5323C7.89113 14.8871 8.22984 14.2903 8.78226 13.9597L10.5121 12.9234C10.7984 12.754 11.125 12.6613 11.4556 12.6613H12.7137C13.1532 12.6613 13.5766 12.8185 13.9073 13.1008L15.6492 14.5968H16.3871C16.7298 14.5968 17.0565 14.7339 17.2984 14.9758L17.996 15.6734C18.1331 15.8105 18.3226 15.8871 18.5161 15.8871H19.0565C17.75 18.2621 15.2742 19.8992 12.4073 20.0444Z" fill="#404C5E"/>
</svg>
